<?xml version="1.0" encoding="UTF-8"?>
<!DOCTYPE svg PUBLIC "-//W3C//DTD SVG 1.1//EN" "http://www.w3.org/Graphics/SVG/1.1/DTD/svg11.dtd">
<svg xmlns="http://www.w3.org/2000/svg" version="1.1" width="500px" height="500px" style="shape-rendering:geometricPrecision; text-rendering:geometricPrecision; image-rendering:optimizeQuality; fill-rule:evenodd; clip-rule:evenodd" xmlns:xlink="http://www.w3.org/1999/xlink">
<g><path style="opacity:0.999" fill="#1d9bf0" d="M 248.5,5.5 C 266.381,19.033 284.214,32.6997 302,46.5C 322.773,43.2461 343.606,40.7461 364.5,39C 373.573,59.2063 382.073,79.7063 390,100.5C 409.667,109.5 429.333,118.5 449,127.5C 446.585,150.485 444.252,173.485 442,196.5C 455.117,213.775 467.617,231.442 479.5,249.5C 467.617,267.558 455.117,285.225 442,302.5C 444.252,325.515 446.585,348.515 449,371.5C 429.333,380.5 409.667,389.5 390,398.5C 381.931,418.873 373.765,439.207 365.5,459.5C 364.167,459.833 362.833,460.167 361.5,460.5C 341.614,458.159 321.78,455.492 302,452.5C 284.368,465.962 266.868,479.628 249.5,493.5C 234.355,481.523 219.355,469.356 204.5,457C 202.252,455.086 199.752,453.586 197,452.5C 177.203,455.37 157.37,458.037 137.5,460.5C 136.167,460.167 134.833,459.833 133.5,459.5C 125.235,439.207 117.069,418.873 109,398.5C 89.3333,389.5 69.6667,380.5 50,371.5C 52.4797,348.516 54.813,325.516 57,302.5C 43.8828,285.225 31.3828,267.558 19.5,249.5C 31.3828,231.442 43.8828,213.775 57,196.5C 54.7489,173.491 52.4155,150.491 50,127.5C 69.6667,118.5 89.3333,109.5 109,100.5C 116.927,79.7063 125.427,59.2063 134.5,39C 156.198,41.1477 177.864,43.481 199.5,46C 215.904,32.4814 232.237,18.9814 248.5,5.5 Z M 324.5,170.5 C 345.31,169.164 353.143,178.497 348,198.5C 316.428,235.982 285.095,273.649 254,311.5C 249.167,317.667 243.667,323.167 237.5,328C 230.693,330.21 224.027,329.877 217.5,327C 193.899,303.736 171.399,279.57 150,254.5C 146.422,241.488 150.922,232.655 163.5,228C 169.185,227.087 174.518,228.087 179.5,231C 195.371,247.871 211.538,264.371 228,280.5C 258.476,244.687 288.976,208.854 319.5,173C 321.315,172.243 322.981,171.41 324.5,170.5 Z"/></g>
</svg>
