<svg width="1334" height="1334" viewBox="0 0 1334 1334" fill="none" xmlns="http://www.w3.org/2000/svg">
<path d="M519.999 38.1334C505.466 41.3334 492.932 49.6001 485.466 60.8001C480.666 68.1334 475.866 85.4667 475.866 95.7334C475.732 106.133 477.866 111.2 503.732 162.667C527.466 210 536.932 230.267 535.732 231.467C535.332 231.867 532.399 230.4 529.199 228.133C520.266 222.133 496.399 209.867 486.399 206.133C463.466 197.467 429.332 193.867 391.066 195.867C333.199 199.067 288.266 209.467 234.799 232.133C193.866 249.6 159.466 268.933 139.466 286C127.332 296.267 110.932 316.267 101.732 331.733C89.5991 352.267 74.1324 388.533 68.5324 409.333C65.4658 420.933 65.4658 443.733 68.5324 458.667C71.8658 474.667 83.4658 509.2 93.1991 531.733C102.932 554.4 150.399 650 158.666 663.333C193.199 719.6 261.332 799.867 346.532 884.667C359.066 897.067 369.332 907.867 369.332 908.667C369.199 909.333 362.932 912.933 355.066 916.667C328.666 929.2 305.466 946.533 275.999 976C237.199 1014.67 222.932 1044.53 218.532 1096.4C215.066 1138 225.866 1182.93 247.332 1216C266.799 1246 300.532 1268.13 353.732 1285.87C377.999 1293.87 387.199 1295.33 413.999 1295.07C455.199 1294.8 479.466 1290.4 533.999 1273.07C572.266 1260.93 602.932 1248.93 656.666 1225.47C673.466 1218 687.866 1212 688.799 1212C689.599 1212 691.332 1213.47 692.532 1215.33C697.066 1222.13 715.332 1236.27 727.332 1242C753.599 1254.8 800.666 1258.53 864.666 1253.2C894.666 1250.67 920.932 1242.8 955.332 1225.87C982.666 1212.4 994.666 1200.93 1006.67 1176.67C1018.67 1152.27 1025.73 1124.53 1025.6 1102C1025.33 1059.73 1002.93 1027.2 942.932 982.4C925.199 969.067 883.332 941.333 881.199 941.333C874.799 941.333 893.199 922.267 916.666 904.533C925.466 897.867 942.932 885.2 955.466 876.4C1035.6 820 1051.2 804.4 1077.2 754.933C1090.13 730.533 1098.4 716.8 1107.6 704.4C1111.6 699.067 1136.8 673.2 1163.6 647.067C1190.4 620.8 1216.93 593.867 1222.53 587.2C1240.4 565.733 1250 545.867 1258 512.933C1267.33 474.933 1270 444 1266 420.8C1257.33 371.467 1224.8 322.933 1188.67 305.867C1172 297.867 1157.07 295.6 1122.67 295.6C1088.27 295.6 1058.27 299.067 1021.47 307.333C1010.13 309.867 1000.67 311.733 1000.4 311.467C1000.13 311.2 1007.2 305.6 1016.13 299.2C1114 228 1137.07 208 1146.8 186.133C1155.73 165.733 1150.67 140.4 1134.27 122.933C1125.73 114 1119.33 110.267 1107.33 107.333C1082.93 101.333 1060.4 110.133 1018.8 141.733C981.199 170.267 935.866 210.933 883.999 262.667C826.799 319.733 752.932 400.133 740.399 418.667C738.266 422 729.732 434.267 721.466 446C713.199 457.733 705.599 468.933 704.532 470.933C703.466 473.067 702.266 474.667 701.866 474.667C701.199 474.667 693.332 457.733 693.332 456C693.332 455.467 695.199 454.267 697.466 453.333C703.999 450.533 714.666 438.8 719.199 429.333C723.066 421.333 723.332 419.6 723.332 406.667C723.332 390.133 720.132 376.533 707.999 340C695.066 301.467 683.866 273.467 624.532 132C614.532 108.133 603.199 90.4001 585.999 72.0001C582.932 68.6667 579.066 63.7334 577.466 61.0667C573.066 53.7334 565.999 48.2667 553.866 42.6667C540.799 36.5334 531.999 35.4667 519.999 38.1334Z" fill="#0085D4"/>
</svg>
